<?xml version="1.0" encoding="utf-8"?>
<svg xmlns="http://www.w3.org/2000/svg" viewBox="0 0 1080 1080" width="1080" height="1080">
  <rect width="1080" height="1080" fill="#14181F"/>
  <!-- Logo -->
  <g transform="translate(72,65) scale(0.34)">
    <path fill="#BFFF00" d="M0,4.17v50.78c0,2.3,1.87,4.17,4.17,4.17h139.46c2.3,0,4.17,1.87,4.17,4.17v50.78c0,2.3-1.87,4.17-4.17,4.17H4.17c-2.3,0-4.17,1.87-4.17,4.17v102c0,4.45,5.39,6.69,8.54,3.54l50.58-50.58h84.54c2.65,0,5.2-1.05,7.07-2.93l53.26-53.26c1.88-1.88,2.93-4.42,2.93-7.07V20c0-11.05-8.95-20-20-20H4.17C1.87,0,0,1.87,0,4.17z"/>
    <path fill="#FFFFFF" d="M279,38.17v135.59c0,2.3,1.87,4.17,4.17,4.17h26.06c2.3,0,4.17-1.87,4.17-4.17v-39.63h81.92c20.38,0,36.9-16.53,36.9-36.93V70.93c0-20.39-16.52-36.93-36.9-36.93H283.17C280.87,34,279,35.87,279,38.17z M394,102.84h-80.6V65.29H394c3.84,0,6.95,3.11,6.95,6.95v23.64C400.95,99.73,397.84,102.84,394,102.84z"/>
    <path fill="#FFFFFF" d="M500.62,139.35V38.17c0-2.3-1.87-4.17-4.17-4.17H470.4c-2.3,0-4.17,1.87-4.17,4.17v105.35c0,19.01,15.4,34.42,34.4,34.42h105.27c2.3,0,4.17-1.87,4.17-4.17v-26.08c0-2.3-1.87-4.17-4.17-4.17h-101.1C502.49,143.52,500.62,141.65,500.62,139.35z"/>
    <path fill="#FFFFFF" d="M672.18,177.94h-26.05c-2.3,0-4.17-1.87-4.17-4.17V38.17c0-2.3,1.87-4.17,4.17-4.17h26.05c2.3,0,4.17,1.87,4.17,4.17v135.6C676.35,176.07,674.48,177.94,672.18,177.94z"/>
    <path fill="#FFFFFF" d="M894.45,171.71L817.87,36.12c-0.74-1.31-2.13-2.12-3.63-2.12h-38.77c-1.58,0-3.02,0.89-3.73,2.31L704,171.9c-1.39,2.77,0.63,6.04,3.73,6.04h31.33c1.58,0,3.02-0.89,3.73-2.31l50.23-100.54c1.24-2.49,4.76-2.58,6.13-0.16l56.98,100.88c0.74,1.31,2.13,2.12,3.63,2.12h31.07C894.02,177.94,896.03,174.49,894.45,171.71z"/>
  </g>
  <!-- Tag pill -->
  <rect x="72" y="195" width="310" height="52" rx="26" fill="#BFFF00" fill-opacity="0.15"/>
  <text x="227" y="228" text-anchor="middle" font-family="Arial,sans-serif" font-size="26" fill="#BFFF00" font-weight="700">PRESENCIA DIGITAL</text>
  <!-- Main headline -->
  <text x="72" y="380" font-family="Arial,sans-serif" font-size="96" fill="#FFFFFF" font-weight="800">Tu web lista</text>
  <text x="72" y="490" font-family="Arial,sans-serif" font-size="96" fill="#FFFFFF" font-weight="800">en horas.</text>
  <text x="72" y="565" font-family="Arial,sans-serif" font-size="42" fill="#8A8FA8">Sin código. Sin complicaciones.</text>
  <!-- Divider -->
  <line x1="72" y1="608" x2="1008" y2="608" stroke="#2A2F3E" stroke-width="2"/>
  <!-- Features -->
  <circle cx="100" cy="666" r="14" fill="#BFFF00"/>
  <text x="130" y="672" font-family="Arial,sans-serif" font-size="36" fill="#FFFFFF">Diseño profesional personalizado</text>
  <circle cx="100" cy="730" r="14" fill="#BFFF00"/>
  <text x="130" y="736" font-family="Arial,sans-serif" font-size="36" fill="#FFFFFF">Dominio .pe incluido</text>
  <circle cx="100" cy="794" r="14" fill="#BFFF00"/>
  <text x="130" y="800" font-family="Arial,sans-serif" font-size="36" fill="#FFFFFF">Entrega garantizada en 48 horas</text>
  <!-- Price -->
  <text x="1008" y="890" text-anchor="end" font-family="Arial,sans-serif" font-size="32" fill="#8A8FA8">desde</text>
  <text x="1008" y="960" text-anchor="end" font-family="Arial,sans-serif" font-size="96" fill="#BFFF00" font-weight="800">S/ 390</text>
  <!-- CTA button -->
  <rect x="72" y="900" width="400" height="88" rx="44" fill="#BFFF00"/>
  <text x="272" y="954" text-anchor="middle" font-family="Arial,sans-serif" font-size="40" fill="#14181F" font-weight="800">Ver más en plia.pe →</text>
</svg>
